<?xml version="1.0" encoding="utf-8"?>
<!-- Generator: Adobe Illustrator 25.4.1, SVG Export Plug-In . SVG Version: 6.00 Build 0)  -->
<svg version="1.1"
	 id="svg2" xmlns:cc="http://creativecommons.org/ns#" xmlns:dc="http://purl.org/dc/elements/1.1/" xmlns:inkscape="http://www.inkscape.org/namespaces/inkscape" xmlns:rdf="http://www.w3.org/1999/02/22-rdf-syntax-ns#" xmlns:sodipodi="http://sodipodi.sourceforge.net/DTD/sodipodi-0.dtd" xmlns:svg="http://www.w3.org/2000/svg"
	 xmlns="http://www.w3.org/2000/svg" xmlns:xlink="http://www.w3.org/1999/xlink" x="0px" y="0px" viewBox="0 0 156.1 92.3"
	 enable-background="new 0 0 156.1 92.3" xml:space="preserve">
<g id="layer1" transform="translate(-175.32783,-131.13109)" inkscape:groupmode="layer" inkscape:label="Camada 1">
	<g id="g3824" transform="translate(-13.32104,-7.2660216)">
		<path id="path2890" sodipodi:nodetypes="czccccccc" fill="#FFFFFF" d="M281,157.2c3.2,3.8,7.6,4.7,9.7,2.9
			c2.1-1.8,3.8-6.2,8.9-4.5c-2.4-6.3,4.7-14,11.7-10.7c1.9-8.6,19.4-9,20.6,1.4c15.6-4.4,18.7,27.9,0,25.4
			c-0.3,8.5-15.6,11.6-17.4,3.6c-3.1,6.6-15.5,7.5-16.8-1.4C289.4,177.4,282,167.4,281,157.2L281,157.2z"/>
		
			<linearGradient id="path3726_00000139979822770390317330000018013075291696303521_" gradientUnits="userSpaceOnUse" x1="501.9586" y1="205.4309" x2="501.9586" y2="165.9018" gradientTransform="matrix(1 0 0 -1 -188.6489 344.978)">
			<stop  offset="0" style="stop-color:#2B0000"/>
			<stop  offset="1" style="stop-color:#D40000"/>
		</linearGradient>
		
			<path id="path3726" sodipodi:nodetypes="cscccccscssscscccssscscsssccccsssccsc" fill="url(#path3726_00000139979822770390317330000018013075291696303521_)" d="
			M321.9,139.6c-2.2-0.1-4.4,0.5-6.1,1.4s-2.9,2.3-3.2,4.1c-4,14.3,13.5,11.4,9.4,2.5l1.5-0.8c5,11.6-15.9,14.4-12.6-0.8
			c-6-2.8-12,3.9-10,9.2c0.2,0.4,0.1,1-0.3,1.3c-0.3,0.3-0.8,0.5-1.3,0.3c-2.2-0.7-3.3-0.2-4.4,0.7c-1.1,0.9-2,2.5-3.3,3.6
			c-1.4,1.2-3.5,1.4-5.5,0.9c-1-0.3-2.1-0.8-3.1-1.4c0.9,3.6,2.6,7,4.7,9.4c2.8,3.1,6,4.4,9.7,2.8c-1.1-7.4,10.3-11,11.3-2l-1.4,0.1
			c-1-7-9.9-4.3-8.2,2.8c0.5,1.9,1.1,3.3,2.3,4.1c1.1,0.9,2.7,1.4,4.3,1.4c3.2,0.1,6.6-1.7,7.9-4.4c0.2-0.5,0.7-0.8,1.2-0.7
			c0.5,0.1,1,0.5,1.1,1c0.4,1.6,1.3,2.6,2.7,3.2c1.4,0.6,3.3,0.7,5.1,0.3s3.7-1.2,5-2.4c1.3-1.2,2.1-2.7,2.2-4.4
			c-10.1-4.4-3-16.1,3.7-12.3l-0.3,1.3c-5.2-3.3-11.8,7.3-2,9.9c4.3,0.6,7.1-0.8,9-3.1s2.7-5.7,2.5-9c-0.2-3.4-1.4-6.7-3.3-8.8
			c-1.9-2.1-4.5-3.1-8-2.1c-0.7,0.2-1.5-0.3-1.5-1c-0.3-2.3-1.4-3.8-3-5C326.2,140.2,324.1,139.6,321.9,139.6z"/>
		
			<radialGradient id="path3810_00000129886546019189032280000012991955412978377873_" cx="258.5241" cy="368.2581" r="31.8729" gradientTransform="matrix(-9.983939e-08 1.1286 4.0528 0 -1179.6375 -153.3684)" gradientUnits="userSpaceOnUse">
			<stop  offset="0" style="stop-color:#FFFFFF;stop-opacity:0.7362"/>
			<stop  offset="0.5823" style="stop-color:#FFFFFF;stop-opacity:0.3252"/>
			<stop  offset="0.5823" style="stop-color:#FFFFFF;stop-opacity:6.134970e-03"/>
			<stop  offset="1" style="stop-color:#FFFFFF;stop-opacity:0"/>
		</radialGradient>
		
			<path id="path3810" sodipodi:nodetypes="czccccccc" fill="url(#path3810_00000129886546019189032280000012991955412978377873_)" d="
			M281,157.2c3.2,3.8,7.6,4.7,9.7,2.9c2.1-1.8,3.8-6.2,8.9-4.5c-2.4-6.3,4.7-14,11.7-10.7c1.9-8.6,19.4-9,20.6,1.4
			c15.6-4.4,18.7,27.9,0,25.4c-0.3,8.5-15.6,11.6-17.4,3.6c-3.1,6.6-15.5,7.5-16.8-1.4C289.4,177.4,282,167.4,281,157.2L281,157.2z"
			/>
	</g>
	<g id="g3839" transform="matrix(-1,0,0,1,890.75595,-108.99033)">
		<path id="path3841" sodipodi:nodetypes="czccccccc" fill="#FFFFFF" d="M587.1,285.7c6.5,7.7,15.2,9.4,19.5,5.8
			c4.3-3.6,7.6-12.5,18-9.1c-4.8-12.8,9.5-28.2,23.5-21.6c3.7-17.3,39-18.2,41.4,2.8c31.4-8.9,37.6,56.1,0,51.2
			c-0.6,17-31.4,23.4-35,7.2c-6.2,13.4-31.2,15.2-33.8-2.9C604,326.5,589.1,306.2,587.1,285.7L587.1,285.7z"/>
		
			<linearGradient id="path3843_00000181055923280501523740000014563154365035101595_" gradientUnits="userSpaceOnUse" x1="951.3226" y1="196.497" x2="951.3226" y2="116.8929" gradientTransform="matrix(-1 0 0 -1 1603.5232 446.7023)">
			<stop  offset="0" style="stop-color:#2B0000"/>
			<stop  offset="1" style="stop-color:#D40000"/>
		</linearGradient>
		
			<path id="path3843" sodipodi:nodetypes="cscccccscssscscccssscscsssccccsssccsc" fill="url(#path3843_00000181055923280501523740000014563154365035101595_)" d="
			M669.6,250.2c-4.4-0.1-8.8,0.9-12.2,2.8s-5.8,4.6-6.5,8.2c-8,28.8,27.1,23,18.9,5l3.1-1.7c10,23.4-32,29.1-25.5-1.7
			c-12.1-5.7-24.2,7.9-20.2,18.5c0.3,0.9,0.1,1.9-0.5,2.6c-0.6,0.7-1.7,0.9-2.6,0.6c-4.5-1.5-6.7-0.5-8.9,1.4s-4,5-6.7,7.2
			c-2.9,2.4-7.1,2.9-11.2,1.8c-2.1-0.6-4.2-1.5-6.2-2.9c1.8,7.3,5.2,14.2,9.5,18.9c5.6,6.2,12.1,8.9,19.5,5.7
			c-2.3-15,20.7-22.2,22.7-4l-2.9,0.2c-2-14-19.9-8.6-16.4,5.7c1,3.9,2.3,6.6,4.6,8.3c2.3,1.8,5.4,2.7,8.6,2.8
			c6.5,0.1,13.3-3.4,15.9-8.9c0.4-0.9,1.5-1.5,2.5-1.4c1,0.1,1.9,0.9,2.1,1.9c0.7,3.3,2.6,5.2,5.4,6.3s6.6,1.4,10.3,0.6
			c3.7-0.8,7.4-2.5,10-4.9s4.3-5.4,4.4-8.9c-20.4-8.9-6-32.5,7.4-24.8l-0.6,2.6c-10.4-6.7-23.7,14.7-4.1,19.9
			c8.7,1.1,14.3-1.6,18.1-6.2c3.7-4.6,5.4-11.4,5.1-18.2c-0.4-6.8-2.8-13.4-6.7-17.6s-9-6.2-16.1-4.2c-1.4,0.4-2.9-0.7-3.1-2.1
			c-0.5-4.6-2.8-7.7-6-10S673.9,250.3,669.6,250.2z"/>
		
			<radialGradient id="path3845_00000181085711982091091910000008129588956156517510_" cx="548.5353" cy="334.3506" r="64.186" gradientTransform="matrix(9.983939e-08 -1.1286 4.0528 0 -703.8094 866.9562)" gradientUnits="userSpaceOnUse">
			<stop  offset="0" style="stop-color:#FFFFFF;stop-opacity:0.7362"/>
			<stop  offset="0.5823" style="stop-color:#FFFFFF;stop-opacity:0.3252"/>
			<stop  offset="0.5823" style="stop-color:#FFFFFF;stop-opacity:6.134970e-03"/>
			<stop  offset="1" style="stop-color:#FFFFFF;stop-opacity:0"/>
		</radialGradient>
		
			<path id="path3845" sodipodi:nodetypes="czccccccc" fill="url(#path3845_00000181085711982091091910000008129588956156517510_)" d="
			M587.1,285.7c6.5,7.7,15.2,9.4,19.5,5.8c4.3-3.6,7.6-12.5,18-9.1c-4.8-12.8,9.5-28.2,23.5-21.6c3.7-17.3,39-18.2,41.4,2.8
			c31.4-8.9,37.6,56.1,0,51.2c-0.6,17-31.4,23.4-35,7.2c-6.2,13.4-31.2,15.2-33.8-2.9C604,326.5,589.1,306.2,587.1,285.7
			L587.1,285.7z"/>
	</g>
</g>
</svg>
