<?xml version="1.0" standalone="no"?>
<!DOCTYPE svg PUBLIC "-//W3C//DTD SVG 20010904//EN"
 "http://www.w3.org/TR/2001/REC-SVG-20010904/DTD/svg10.dtd">
<svg version="1.0" xmlns="http://www.w3.org/2000/svg"
 width="735.000000pt" height="752.000000pt" viewBox="0 0 735.000000 752.000000"
 preserveAspectRatio="xMidYMid meet">

<g transform="translate(0.000000,752.000000) scale(0.100000,-0.100000)"
fill="#000000" stroke="none">
<path d="M820 6862 c-87 -29 -132 -56 -191 -114 -71 -70 -118 -167 -133 -273
-13 -86 -18 -92 -92 -94 -39 -1 -150 -56 -197 -98 -44 -38 -101 -112 -121
-156 -23 -50 -46 -150 -46 -202 0 -177 121 -356 288 -426 69 -28 87 -32 177
-32 114 1 178 20 267 79 l51 35 31 -28 c16 -15 35 -32 41 -38 7 -5 61 -55 121
-111 60 -55 172 -159 249 -229 77 -71 186 -171 243 -223 57 -53 118 -109 137
-125 69 -58 77 -57 -407 -57 -409 0 -446 -2 -483 -19 -90 -41 -143 -129 -132
-220 7 -56 19 -82 62 -129 61 -68 52 -66 546 -70 l446 -3 11 -52 c6 -29 13
-70 17 -92 6 -46 33 -160 44 -190 4 -11 18 -51 30 -90 13 -38 26 -79 31 -90 5
-11 19 -45 32 -75 41 -101 206 -375 262 -437 6 -6 45 -49 86 -95 41 -46 110
-115 154 -153 43 -39 84 -75 90 -80 6 -6 28 -21 48 -35 44 -29 46 -36 16 -62
-33 -29 -192 -173 -268 -244 -36 -33 -87 -80 -114 -105 -27 -24 -59 -53 -70
-64 -12 -11 -46 -42 -76 -69 -30 -28 -85 -77 -121 -110 -36 -34 -85 -79 -110
-101 -24 -22 -89 -82 -145 -133 -92 -84 -124 -106 -124 -84 0 13 -101 69 -160
88 -65 21 -211 24 -261 5 -164 -62 -268 -165 -318 -313 -67 -199 30 -439 220
-545 46 -26 127 -53 159 -53 37 0 50 -18 50 -69 0 -62 38 -173 77 -223 45 -58
123 -125 173 -149 74 -36 84 -39 161 -49 179 -22 372 78 456 237 78 145 80
285 7 440 -8 18 -19 35 -24 38 -6 3 -10 12 -10 20 0 12 72 86 140 145 14 12
65 58 114 103 124 114 150 137 157 137 7 0 13 -47 25 -170 7 -84 50 -274 74
-335 140 -343 344 -515 721 -606 239 -57 681 -59 903 -3 128 32 161 44 279 98
179 82 326 232 415 426 26 58 54 142 82 250 17 64 40 231 40 286 0 54 9 66 34
42 7 -7 53 -49 101 -93 49 -44 100 -91 115 -105 15 -14 59 -54 98 -90 40 -36
72 -71 72 -77 0 -7 -13 -37 -29 -67 -39 -70 -55 -158 -48 -254 6 -91 32 -163
86 -236 142 -192 398 -246 604 -127 130 75 215 207 233 364 6 52 9 58 33 63
183 37 300 122 373 272 32 65 33 71 33 192 0 122 -1 127 -34 195 -128 262
-444 350 -682 189 -28 -19 -54 -34 -57 -34 -3 0 -33 26 -66 57 -75 71 -235
218 -416 383 -74 68 -160 146 -190 174 -30 28 -102 94 -159 146 -58 52 -124
113 -148 134 -24 22 -43 45 -43 52 0 6 12 20 28 29 81 53 260 223 352 335 85
104 125 158 155 210 98 173 151 284 190 395 9 28 21 59 25 70 20 53 66 252 75
332 l7 52 451 3 452 3 45 26 c25 15 59 45 75 69 27 38 30 49 30 120 0 71 -3
82 -30 122 -20 28 -49 52 -84 71 l-55 27 -443 0 c-302 0 -443 3 -443 10 0 6
11 21 24 33 13 12 64 58 112 102 48 44 97 89 109 100 11 11 65 60 120 110 98
88 151 137 285 261 36 33 89 82 119 110 30 27 61 57 70 67 20 22 27 21 53 -3
38 -35 149 -82 217 -91 96 -13 190 2 276 46 79 39 104 60 155 125 72 92 100
174 100 292 0 86 -25 173 -68 243 -64 101 -188 187 -297 205 -85 14 -85 14
-85 85 0 35 -4 67 -10 70 -5 3 -10 13 -10 21 0 16 -35 99 -50 118 -78 100
-153 154 -259 186 -162 50 -339 4 -459 -117 -32 -32 -70 -83 -84 -113 -30 -63
-58 -166 -58 -214 0 -48 33 -163 65 -229 l29 -58 -84 -77 c-47 -42 -114 -104
-150 -137 -36 -33 -115 -106 -175 -161 -168 -155 -189 -174 -200 -174 -5 1
-30 33 -55 72 -25 39 -49 76 -55 82 -5 6 -21 27 -35 46 -70 100 -299 326 -406
402 -369 262 -750 388 -1188 392 -248 2 -541 -51 -723 -130 -17 -8 -34 -14
-38 -14 -20 0 -280 -135 -350 -181 -220 -145 -412 -335 -567 -559 -24 -36 -47
-73 -51 -83 -15 -42 -37 -28 -204 124 -93 84 -186 170 -208 190 -22 21 -56 52
-75 70 -19 17 -61 56 -93 86 l-58 55 32 67 c18 36 37 76 43 89 5 12 10 71 10
130 0 106 0 108 -41 193 -51 105 -129 182 -231 230 -58 27 -81 32 -167 35 -79
3 -112 0 -155 -14z m309 -107 c151 -81 227 -235 200 -405 -11 -70 -44 -139
-91 -190 l-30 -33 29 -24 c15 -14 53 -48 83 -76 31 -29 82 -76 115 -106 33
-30 89 -82 125 -116 36 -33 106 -97 155 -142 50 -45 112 -101 138 -126 l48
-44 -41 -81 c-22 -44 -40 -87 -40 -94 0 -8 -4 -18 -9 -23 -12 -13 -63 -178
-91 -292 -13 -51 -26 -93 -29 -93 -6 0 -47 36 -131 114 -25 23 -103 96 -175
161 -71 65 -155 141 -185 169 -54 51 -255 234 -339 310 l-44 39 -26 -29 c-80
-89 -153 -119 -286 -118 -121 1 -166 18 -253 99 -55 51 -83 97 -111 186 -32
103 7 252 93 348 64 71 212 129 306 118 l45 -5 0 106 c0 95 3 113 27 164 38
82 100 145 183 185 69 34 72 34 175 30 92 -3 111 -7 159 -32z m5451 3 c144
-70 233 -233 214 -388 -4 -30 -5 -57 -3 -59 2 -2 38 -5 79 -6 110 -3 180 -33
255 -109 33 -34 66 -73 73 -88 6 -16 18 -40 25 -55 7 -15 12 -67 12 -127 0
-91 -3 -107 -29 -160 -38 -77 -105 -145 -181 -181 -54 -26 -70 -29 -160 -30
-89 0 -106 3 -158 28 -32 15 -80 48 -107 73 l-48 45 -63 -58 c-153 -141 -210
-193 -299 -275 -136 -123 -148 -135 -216 -197 -33 -31 -105 -96 -159 -146 -54
-49 -105 -96 -113 -104 -13 -13 -16 -12 -28 4 -8 10 -14 29 -14 42 0 28 -37
171 -50 195 -6 10 -10 23 -10 30 0 16 -44 126 -88 222 l-36 78 80 77 c44 42
101 94 125 116 177 161 392 357 433 396 l48 46 -45 59 c-56 74 -77 137 -77
233 0 115 37 199 123 278 81 73 139 93 262 90 85 -2 108 -6 155 -29z m-2682
-283 c164 -20 250 -39 396 -87 233 -77 429 -186 625 -346 70 -58 234 -224 283
-288 87 -113 228 -344 228 -374 0 -7 -541 -10 -1745 -10 -960 0 -1745 3 -1745
6 0 3 20 44 45 90 225 423 629 768 1075 917 279 93 565 125 838 92z m2700
-1812 c40 -26 47 -35 59 -70 17 -49 1 -102 -43 -140 l-37 -33 -2882 0 c-2592
0 -2885 2 -2913 16 -93 46 -97 171 -7 225 29 18 122 19 2913 19 2720 0 2884
-1 2910 -17z m-998 -366 c0 -53 -46 -246 -86 -364 -118 -347 -345 -669 -630
-893 -75 -59 -110 -83 -189 -130 -92 -56 -233 -127 -295 -149 -19 -7 -44 -17
-55 -21 -11 -5 -51 -18 -90 -30 -38 -11 -83 -25 -100 -30 -115 -35 -225 -45
-475 -45 -302 0 -356 8 -609 91 -129 43 -187 68 -326 144 -74 40 -203 126
-263 175 -318 258 -551 612 -658 1001 -18 66 -53 239 -54 267 0 16 98 17 1915
17 l1915 0 0 -33z m-2980 -1456 c0 -5 -22 -56 -50 -113 -27 -56 -50 -110 -50
-118 0 -9 -4 -20 -9 -25 -17 -19 -71 -242 -86 -353 -8 -62 -15 -161 -15 -220
l0 -108 -67 -59 c-36 -33 -72 -64 -78 -70 -6 -5 -42 -39 -80 -75 -138 -129
-288 -265 -299 -272 -7 -5 -8 -12 -1 -22 6 -7 25 -35 44 -61 53 -75 74 -146
69 -240 -9 -182 -132 -317 -321 -355 -47 -9 -70 -9 -128 4 -38 9 -80 22 -92
29 -36 20 -101 70 -115 89 -7 9 -19 23 -26 30 -58 58 -94 244 -62 319 6 14 -3
16 -72 16 -169 -1 -306 94 -366 256 -28 74 -20 215 17 285 15 29 33 60 42 68
8 8 20 23 27 33 19 25 96 75 148 94 61 23 189 23 250 0 57 -21 120 -64 153
-103 l26 -30 38 32 c21 18 65 57 98 88 247 226 408 374 461 420 79 70 391 356
449 412 54 52 95 73 95 49z m2259 -78 c153 -140 201 -184 276 -254 38 -36 115
-105 170 -154 55 -49 105 -94 111 -100 30 -28 210 -192 228 -208 21 -19 66
-60 168 -154 l57 -53 50 49 c35 34 72 57 119 76 61 24 80 27 158 23 74 -3 99
-9 148 -33 78 -39 137 -100 177 -181 30 -60 33 -74 32 -157 0 -127 -28 -193
-123 -286 -64 -63 -196 -106 -286 -94 l-39 5 0 -104 c0 -77 -5 -114 -18 -148
-50 -120 -153 -207 -282 -235 -68 -16 -80 -16 -144 -1 -86 20 -138 48 -198
107 -143 141 -150 351 -17 515 l34 41 -87 79 c-47 43 -96 87 -107 97 -12 10
-39 35 -61 55 -22 20 -90 82 -150 137 -60 55 -115 105 -121 110 -7 7 -13 76
-17 185 -5 164 -14 227 -55 391 -9 33 -33 105 -52 154 -4 11 -29 64 -54 117
-25 53 -46 99 -46 102 0 23 47 -7 129 -81z m-2070 -23 c55 -27 105 -50 110
-50 6 0 27 -7 48 -16 44 -19 70 -30 97 -38 21 -7 21 16 -7 -271 l-12 -120 -30
2 c-97 7 -342 128 -432 212 l-22 20 20 53 c11 29 24 64 28 78 15 45 83 180 91
180 5 0 54 -22 109 -50z m1901 -11 c44 -86 101 -235 95 -251 -7 -17 -116 -96
-185 -134 -82 -46 -274 -113 -286 -101 -8 8 -44 381 -37 387 5 3 26 12 48 19
22 7 54 19 70 26 17 7 54 22 83 34 28 12 76 35 105 51 28 16 57 30 63 30 7 0
26 -28 44 -61z m-1375 -157 c61 -11 154 -23 208 -27 l97 -7 0 -185 0 -185
-147 5 c-82 3 -193 13 -248 21 -55 8 -104 15 -108 16 -9 0 -4 93 14 240 18
157 17 153 47 147 15 -3 77 -14 137 -25z m869 19 c6 -8 35 -268 39 -341 l2
-35 -60 -11 c-126 -23 -235 -34 -343 -34 l-112 0 0 184 0 183 98 7 c96 7 321
42 330 51 9 8 40 6 46 -4z m-1441 -346 c51 -23 103 -46 117 -49 14 -4 34 -11
45 -16 11 -4 39 -13 63 -19 l43 -12 -6 -77 c-3 -42 -10 -102 -15 -132 -5 -30
-12 -90 -16 -132 -3 -43 -9 -78 -14 -78 -19 0 -112 35 -185 70 -104 50 -156
86 -248 170 l-49 44 5 106 c4 93 19 211 32 248 4 10 25 0 71 -33 36 -26 107
-66 157 -90z m2097 20 c5 -33 10 -102 11 -153 l3 -92 -49 -50 c-64 -65 -139
-116 -245 -167 -78 -38 -166 -73 -182 -73 -10 0 -16 40 -33 205 -9 83 -18 164
-21 182 -6 30 -4 32 37 43 131 33 307 115 411 190 l43 31 7 -28 c5 -15 12 -55
18 -88z m-1575 -160 c61 -8 165 -18 233 -22 l122 -6 0 -220 0 -220 -117 7
c-142 9 -329 32 -398 49 l-50 13 3 50 c3 64 33 345 38 363 3 9 13 11 32 7 15
-4 77 -13 137 -21z m981 -60 c16 -110 34 -274 34 -311 l0 -32 -87 -16 c-117
-21 -224 -34 -365 -42 l-118 -6 0 219 0 220 128 7 c139 7 350 31 360 41 3 3
13 4 21 3 11 -2 19 -26 27 -83z m601 -282 c-24 -467 -182 -767 -481 -916 -191
-96 -339 -126 -652 -134 -237 -6 -478 22 -589 67 -11 5 -31 12 -45 16 -45 12
-134 57 -195 98 -252 168 -372 437 -402 904 -6 93 1 101 52 54 41 -36 92 -72
104 -72 5 0 11 -3 13 -8 4 -10 141 -76 208 -100 52 -19 156 -47 265 -71 245
-55 843 -55 1090 1 257 57 444 135 570 238 33 27 62 49 64 49 2 1 1 -56 -2
-126z"/>
<path d="M2739 5997 c-14 -12 -48 -41 -76 -64 -98 -83 -239 -241 -294 -330
-22 -35 -22 -36 -4 -69 15 -28 24 -34 51 -34 33 0 54 21 136 130 36 48 162
176 227 230 78 66 81 69 81 99 0 58 -71 81 -121 38z"/>
<path d="M4767 5892 c-35 -38 -22 -72 56 -152 82 -85 135 -149 191 -232 21
-31 48 -59 59 -62 30 -8 70 15 81 46 8 23 3 36 -39 100 -26 40 -53 78 -59 83
-6 6 -24 28 -41 50 -16 22 -61 73 -100 113 -77 78 -114 92 -148 54z"/>
<path d="M2887 5818 c-105 -107 -217 -264 -217 -304 0 -34 29 -64 61 -64 36 0
40 4 100 90 51 74 71 99 149 182 70 75 76 88 58 124 -10 23 -21 30 -51 32 -35
3 -43 -2 -100 -60z"/>
<path d="M4409 5799 c-29 -29 -19 -73 30 -124 21 -22 62 -76 92 -120 30 -44
61 -85 69 -92 47 -39 117 13 97 72 -13 40 -95 159 -158 229 -57 63 -93 72
-130 35z"/>
<path d="M3142 5688 c-93 -95 -122 -138 -122 -184 0 -37 4 -43 29 -54 16 -6
38 -9 48 -6 11 3 49 44 87 91 37 47 71 85 75 85 9 0 31 45 31 65 0 24 -38 55
-68 55 -21 0 -42 -14 -80 -52z"/>
<path d="M2861 4219 c-185 -36 -332 -161 -403 -341 -17 -43 -21 -76 -22 -179
-1 -72 4 -136 10 -150 6 -13 22 -49 36 -79 37 -79 99 -152 174 -205 201 -140
477 -122 656 44 103 95 178 258 178 387 0 128 -63 277 -156 369 -78 78 -83 81
-158 115 -98 45 -214 59 -315 39z"/>
<path d="M4400 4216 c-113 -24 -170 -56 -255 -142 -38 -39 -74 -77 -80 -85
-19 -27 -55 -106 -55 -121 0 -8 -5 -19 -12 -26 -8 -8 -12 -52 -12 -135 0 -123
10 -172 56 -257 67 -127 211 -237 347 -266 293 -62 561 104 635 394 59 233
-60 487 -279 592 -117 57 -226 71 -345 46z"/>
<path d="M3597 3108 c-46 -12 -113 -73 -122 -111 -9 -35 33 -93 88 -120 93
-47 231 -30 299 36 37 36 40 43 35 79 -13 96 -161 153 -300 116z"/>
</g>
</svg>
